<svg width="32" height="32" viewBox="0 0 32 32" fill="none" xmlns="http://www.w3.org/2000/svg">
<g clip-path="url(#clip0_299_530)">
<path d="M14.0768 5V26.9802L8.56523 26.9901C5.53384 26.9957 3.04166 26.9885 3.02684 26.9739C3.01202 26.9593 3 26.4683 3 25.8832V24.819L7.0253 20.8198L11.0502 16.8203L11.0514 14.2866L11.0522 11.753L7.0261 15.7296L3 19.7062L3.02123 8.28122L3.12499 7.94519C3.3305 7.28104 3.53161 6.90153 3.94303 6.40341C4.47343 5.76061 5.31511 5.2621 6.19684 5.068C6.47647 5.00633 6.85985 5 10.291 5H14.0768ZM28.983 26.9008L28.9577 27L26.2845 26.9984C24.0731 26.9972 23.594 26.9874 23.5111 26.9415C23.4558 26.9114 22.681 26.1512 21.7885 25.253C20.8959 24.3545 18.9582 22.4043 17.4819 20.9191C15.0439 18.4661 14.7967 18.2055 14.7851 18.0771C14.7726 17.9407 14.8023 17.9051 15.5478 17.1603C15.9745 16.7341 17.5304 15.1686 19.0055 13.6814C20.6632 12.0104 21.7372 10.9568 21.8169 10.924C21.984 10.8552 27.4158 10.8441 27.4587 10.9125C27.4731 10.9355 27.4839 11.0446 27.4831 11.1553C27.4815 11.3557 27.4815 11.3561 27.0677 11.7755C26.8401 12.006 25.8074 13.0572 24.7722 14.1111C23.737 15.1655 22.4799 16.444 21.9788 16.9523C21.1259 17.8181 21.0674 17.8869 21.0674 18.0229C21.0674 18.1597 21.1715 18.2783 22.8765 20.0837C24.902 22.2284 27.3253 24.8016 28.308 25.8508C28.9758 26.564 29.0423 26.6675 28.983 26.9008ZM26.0838 8.89438C25.3539 9.11695 24.5194 8.88924 24.0082 8.32827C23.3192 7.572 23.3424 6.42911 24.0623 5.68471C24.4096 5.32496 24.8235 5.12611 25.3282 5.07551C25.9884 5.00949 26.7568 5.37596 27.1153 5.92704C27.5123 6.53783 27.5652 7.25495 27.2604 7.88589C27.0188 8.38519 26.613 8.73348 26.0838 8.89438Z" fill="url(#paint0_linear_299_530)"/>
</g>
<defs>
<linearGradient id="paint0_linear_299_530" x1="3" y1="5.01977" x2="28.7068" y2="27.337" gradientUnits="userSpaceOnUse">
<stop stop-color="#8B5CF6"/>
<stop offset="0.5" stop-color="#636FF6"/>
<stop offset="1" stop-color="#22D3EE"/>
</linearGradient>
<clipPath id="clip0_299_530">
<rect width="32" height="32" fill="white"/>
</clipPath>
</defs>
</svg>
